<svg width="351" height="107" viewBox="0 0 351 107" fill="none" xmlns="http://www.w3.org/2000/svg">
<g clip-path="url(#clip0)">
<path d="M175.441 38.0701C173.548 38.0376 171.678 38.4812 170.001 39.3601C168.469 40.2082 167.191 41.4513 166.301 42.9601C166.301 43.0201 166.001 43.5001 165.761 43.9001C165.521 44.3001 165.341 44.3501 165.001 43.6601C164.063 41.9345 162.713 40.4676 161.071 39.3901C159.343 38.4815 157.413 38.0272 155.461 38.0701C153.714 37.9714 151.973 38.3356 150.412 39.1257C148.851 39.9159 147.526 41.104 146.571 42.5701C146.211 43.1701 145.961 43.6701 145.961 43.0601V39.5401C145.961 39.2952 145.865 39.0601 145.692 38.886C145.52 38.7119 145.286 38.6127 145.041 38.6101H136.401C136.279 38.6101 136.159 38.6342 136.047 38.6811C135.934 38.7279 135.833 38.7966 135.747 38.8831C135.661 38.9696 135.594 39.0722 135.548 39.1849C135.503 39.2977 135.48 39.4184 135.481 39.5401C135.481 40.2901 135.481 41.2001 135.481 41.9501C135.479 42.0449 135.509 42.1376 135.568 42.2123C135.626 42.2871 135.709 42.3393 135.801 42.3601C136.371 42.4801 137.511 42.9501 137.511 44.9101V71.3001C137.511 71.5467 137.609 71.7833 137.784 71.9577C137.958 72.1321 138.194 72.2301 138.441 72.2301H145.051C145.296 72.2274 145.53 72.1283 145.702 71.9542C145.875 71.7801 145.971 71.545 145.971 71.3001V50.5701C146.071 49.0433 146.751 47.6124 147.871 46.5701C148.977 45.6084 150.407 45.1042 151.871 45.1601C152.668 45.1356 153.46 45.2858 154.193 45.6002C154.925 45.9146 155.58 46.3856 156.111 46.9801C157.222 48.2876 157.801 49.9655 157.731 51.6801V71.3001C157.731 71.545 157.828 71.7801 158 71.9542C158.172 72.1283 158.406 72.2274 158.651 72.2301H165.191C165.438 72.2301 165.674 72.1321 165.849 71.9577C166.023 71.7833 166.121 71.5467 166.121 71.3001V51.6401C166.043 49.9334 166.623 48.2618 167.741 46.9701C168.277 46.3873 168.933 45.9268 169.662 45.6197C170.392 45.3125 171.18 45.166 171.971 45.1901C172.755 45.1604 173.537 45.3056 174.258 45.6152C174.979 45.9248 175.622 46.3911 176.141 46.9801C177.22 48.3136 177.771 49.9968 177.691 51.7101V71.3001C177.691 71.545 177.788 71.7801 177.96 71.9542C178.132 72.1283 178.366 72.2274 178.611 72.2301H185.221C185.468 72.2301 185.704 72.1321 185.879 71.9577C186.053 71.7833 186.151 71.5467 186.151 71.3001V49.6201C186.151 45.9601 185.151 43.0801 183.321 41.0801C182.297 40.0475 181.064 39.245 179.705 38.726C178.347 38.207 176.893 37.9834 175.441 38.0701Z" fill="#160744"/>
<path d="M232.751 38.6101H226.151C225.638 38.6101 225.221 39.0265 225.221 39.5401V71.2901C225.221 71.8037 225.638 72.2201 226.151 72.2201H232.751C233.265 72.2201 233.681 71.8037 233.681 71.2901V39.5401C233.681 39.0265 233.265 38.6101 232.751 38.6101Z" fill="#160744"/>
<path d="M221.001 57.0301C220.911 55.3801 220.781 53.8401 220.621 52.4501C219.871 47.8801 218.231 44.2801 215.741 41.7601C213.251 39.2401 209.861 38.0101 205.631 38.0101C202.27 37.9287 198.977 38.9586 196.261 40.9401C193.672 42.8404 191.815 45.5731 191.001 48.6801C190.478 50.7959 190.236 52.9712 190.281 55.1501C190.273 57.2193 190.539 59.2806 191.071 61.2801C191.836 64.6102 193.708 67.5823 196.381 69.7101C199.273 71.8313 202.798 72.91 206.381 72.7701C208.92 72.7925 211.434 72.2672 213.751 71.2301C215.82 70.3184 217.655 68.951 219.121 67.2301C219.202 67.1465 219.264 67.0465 219.302 66.9369C219.341 66.8273 219.355 66.7107 219.345 66.595C219.335 66.4792 219.299 66.3671 219.242 66.2662C219.184 66.1653 219.105 66.0779 219.011 66.0101L215.341 62.4901C215.274 62.4191 215.192 62.3646 215.1 62.3309C215.009 62.2972 214.911 62.2852 214.814 62.2959C214.717 62.3066 214.624 62.3396 214.542 62.3924C214.46 62.4452 214.391 62.5163 214.341 62.6001C213.455 63.6085 212.362 64.4151 211.137 64.9654C209.912 65.5157 208.584 65.7969 207.241 65.7901C205.468 65.8421 203.711 65.4356 202.141 64.6101C200.749 63.8709 199.704 62.6137 199.231 61.1101C199.009 60.4925 198.858 59.8517 198.781 59.2001L198.661 58.4201C198.581 57.9301 198.661 57.9401 199.141 57.9301H220.321C220.406 57.9385 220.492 57.929 220.573 57.9021C220.654 57.8752 220.729 57.8316 220.792 57.7741C220.855 57.7166 220.905 57.6465 220.94 57.5683C220.974 57.4901 220.992 57.4055 220.991 57.3201C220.991 57.3201 221.001 57.0801 221.001 57.0301ZM211.861 52.3001H199.051C198.881 52.3001 198.761 52.2101 198.811 51.9501L198.881 51.5801C198.985 50.8856 199.142 50.2002 199.351 49.5301C199.714 48.2512 200.483 47.1248 201.541 46.3201C202.741 45.5589 204.137 45.1639 205.558 45.1835C206.978 45.203 208.363 45.6362 209.541 46.4301C210.628 47.2874 211.422 48.4617 211.811 49.7901C212.001 50.4029 212.105 51.0389 212.121 51.6801C212.121 51.6801 212.121 51.9901 212.121 52.0301C212.161 52.2301 212.001 52.3001 211.821 52.3001H211.861Z" fill="#160744"/>
<path d="M325.64 57.03C325.55 55.38 325.42 53.84 325.26 52.45C324.52 47.88 322.87 44.28 320.38 41.76C317.89 39.24 314.51 38.01 310.27 38.01C306.909 37.9317 303.617 38.9613 300.9 40.94C298.316 42.8394 296.468 45.5739 295.67 48.68C295.143 50.7953 294.898 52.9707 294.94 55.15C294.931 57.2193 295.197 59.2805 295.73 61.28C296.498 64.6112 298.373 67.5833 301.05 69.71C303.939 71.8348 307.466 72.9139 311.05 72.77C313.588 72.7924 316.102 72.2672 318.42 71.23C320.49 70.3161 322.328 68.9491 323.8 67.23C323.88 67.1457 323.941 67.0452 323.979 66.9352C324.017 66.8252 324.03 66.7083 324.019 66.5926C324.007 66.4768 323.971 66.3649 323.913 66.2643C323.854 66.1638 323.775 66.0771 323.68 66.01L320 62.49C319.74 62.22 319.36 62.17 319 62.6C318.111 63.6082 317.016 64.4145 315.79 64.9647C314.564 65.5149 313.234 65.7963 311.89 65.79C310.116 65.842 308.36 65.4356 306.79 64.61C305.398 63.8709 304.352 62.6136 303.88 61.11C303.658 60.4924 303.507 59.8517 303.43 59.2L303.32 58.42C303.23 57.93 303.37 57.94 303.79 57.93H325C325.085 57.9401 325.171 57.9317 325.253 57.9054C325.335 57.8792 325.41 57.8356 325.474 57.7778C325.537 57.72 325.588 57.6492 325.621 57.5702C325.655 57.4912 325.672 57.4059 325.67 57.32C325.67 57.32 325.65 57.08 325.64 57.03ZM316.51 52.3H303.73C303.57 52.3 303.44 52.21 303.49 51.95L303.56 51.58C303.663 50.8856 303.82 50.2002 304.03 49.53C304.393 48.2511 305.161 47.1247 306.22 46.32C307.42 45.5588 308.815 45.1639 310.236 45.1834C311.657 45.2029 313.041 45.6361 314.22 46.43C315.003 47.0673 315.639 47.8664 316.084 48.7726C316.53 49.6788 316.774 50.6706 316.8 51.68C316.8 51.68 316.8 51.99 316.8 52.03C316.84 52.23 316.73 52.3 316.51 52.3Z" fill="#160744"/>
<path d="M349.821 38.9601C349.498 38.7949 349.164 38.6512 348.821 38.5301C348.003 38.2547 347.144 38.1228 346.281 38.1401C344.619 38.1683 342.997 38.6486 341.587 39.5295C340.178 40.4105 339.035 41.6586 338.281 43.1401C338.161 43.3701 338.001 43.2901 338.001 43.1401C338.001 42.7301 338.001 40.7601 338.051 39.5701C338.053 39.4476 338.03 39.326 337.983 39.2126C337.937 39.0991 337.869 38.9961 337.782 38.9095C337.695 38.8228 337.592 38.7544 337.479 38.7081C337.365 38.6619 337.244 38.6387 337.121 38.6401H330.481C330.235 38.6401 329.998 38.738 329.824 38.9124C329.649 39.0869 329.551 39.3234 329.551 39.5701V71.3C329.551 71.5467 329.649 71.7832 329.824 71.9577C329.998 72.1321 330.235 72.23 330.481 72.23H337.091C337.336 72.2274 337.57 72.1283 337.742 71.9541C337.915 71.78 338.011 71.545 338.011 71.3V53.4901C337.979 52.6378 338.127 51.7883 338.446 50.9972C338.764 50.2062 339.247 49.4915 339.861 48.9001C341.509 47.4434 343.666 46.699 345.861 46.8301H345.931C346.604 46.8725 347.272 46.9628 347.931 47.1001C348.017 47.1316 348.109 47.1425 348.2 47.1318C348.291 47.1211 348.378 47.0891 348.454 47.0384C348.53 46.9877 348.593 46.9198 348.637 46.8401C348.682 46.7605 348.707 46.6714 348.711 46.5801C348.771 46.2801 350.001 39.5801 350.001 39.5801C350.071 39.3101 350.111 39.1001 349.821 38.9601Z" fill="#160744"/>
<path d="M256.22 38.5501L249.22 38.6101V30.7101C249.222 30.6493 249.211 30.5889 249.188 30.5325C249.166 30.476 249.132 30.4248 249.089 30.3818C249.046 30.3388 248.995 30.305 248.938 30.2823C248.882 30.2597 248.821 30.2487 248.76 30.2501H244.38C244.279 30.2543 244.182 30.2919 244.104 30.357C244.026 30.4221 243.972 30.5111 243.95 30.6101C243.706 32.4453 243.081 34.2093 242.117 35.7898C241.153 37.3704 239.87 38.7327 238.35 39.7901C238.296 39.8283 238.251 39.8791 238.219 39.9383C238.188 39.9974 238.171 40.0632 238.17 40.1301V44.6101C238.17 44.7321 238.219 44.8491 238.305 44.9354C238.391 45.0217 238.508 45.0701 238.63 45.0701H241.26V64.2601C241.26 69.3501 245.38 72.6401 251.76 72.6401C252.54 72.6401 253.98 72.5601 255.64 72.4701C256 72.4701 256.09 72.2401 256.09 71.9301V65.8501C256.09 65.7281 256.042 65.6111 255.956 65.5248C255.869 65.4386 255.752 65.3901 255.63 65.3901H253.63C253.02 65.4406 252.406 65.3576 251.831 65.1469C251.256 64.9362 250.734 64.6029 250.3 64.1701C249.552 63.1185 249.198 61.8368 249.3 60.5501V45.0801H256.3C256.425 45.0801 256.545 45.0306 256.633 44.9425C256.721 44.8543 256.77 44.7348 256.77 44.6101V39.0101C256.772 38.9413 256.758 38.8731 256.729 38.8105C256.701 38.7479 256.658 38.6925 256.606 38.6484C256.553 38.6042 256.491 38.5725 256.424 38.5555C256.358 38.5385 256.288 38.5366 256.22 38.5501Z" fill="#160744"/>
<path d="M279.489 38.0701C277.685 37.9875 275.895 38.4241 274.332 39.328C272.769 40.232 271.497 41.5654 270.669 43.1701C270.509 43.4101 270.399 43.3001 270.399 43.1701V39.5401C270.399 39.2951 270.302 39.0601 270.13 38.886C269.958 38.7118 269.724 38.6127 269.479 38.6101H262.869C262.622 38.6101 262.386 38.708 262.211 38.8824C262.037 39.0569 261.939 39.2934 261.939 39.5401V71.3001C261.939 71.5467 262.037 71.7833 262.211 71.9577C262.386 72.1321 262.622 72.2301 262.869 72.2301H269.479C269.724 72.2274 269.958 72.1283 270.13 71.9542C270.302 71.78 270.399 71.545 270.399 71.3001V51.7801C270.331 50.0414 270.937 48.3437 272.089 47.0401C272.651 46.4318 273.338 45.9517 274.102 45.6325C274.867 45.3132 275.691 45.1623 276.519 45.1901C277.341 45.1559 278.161 45.3051 278.918 45.6268C279.676 45.9485 280.352 46.4347 280.899 47.0501C282.004 48.3722 282.578 50.0582 282.509 51.7801V71.3001C282.509 71.5467 282.607 71.7833 282.781 71.9577C282.956 72.1321 283.192 72.2301 283.439 72.2301H289.999C290.246 72.2301 290.482 72.1321 290.657 71.9577C290.831 71.7833 290.929 71.5467 290.929 71.3001V49.8201C291.009 48.2484 290.772 46.6767 290.23 45.199C289.689 43.7213 288.855 42.368 287.779 41.2201C286.681 40.1636 285.38 39.3399 283.956 38.7986C282.531 38.2573 281.012 38.0095 279.489 38.0701Z" fill="#160744"/>
<path d="M229.45 33.6C232.101 33.6 234.25 31.451 234.25 28.8C234.25 26.149 232.101 24 229.45 24C226.799 24 224.65 26.149 224.65 28.8C224.65 31.451 226.799 33.6 229.45 33.6Z" fill="#160744"/>
<path d="M96.72 0.659945L51 34.8599V63.1399L82.52 39.5499V95.3899L100.06 82.2799C100.652 81.8505 101.136 81.2888 101.473 80.6395C101.809 79.9902 101.99 79.2713 102 78.5399V3.14995C101.987 2.54351 101.806 1.95264 101.476 1.44379C101.145 0.934941 100.68 0.528287 100.131 0.269563C99.5826 0.0108385 98.9727 -0.0896938 98.3701 -0.0207284C97.7674 0.048237 97.196 0.283965 96.72 0.659945Z" fill="url(#paint0_linear)"/>
<path d="M51 63.1399V85.1399L65 74.6199V104.45C65.0179 104.827 65.1384 105.191 65.3485 105.505C65.5585 105.818 65.8502 106.068 66.192 106.227C66.5338 106.387 66.9126 106.45 67.2877 106.41C67.6627 106.37 68.0197 106.228 68.32 106L82.52 95.3899V39.5499L51 63.1399Z" fill="#2F0C66"/>
<path d="M0 3.14997V78.54C0.00387253 79.2682 0.177643 79.9855 0.507488 80.6348C0.837332 81.284 1.31415 81.8474 1.9 82.28L19.43 95.39V39.55L51 63.14V34.86L5.23 0.659966C4.75371 0.298233 4.1871 0.0744944 3.59216 0.013239C2.99723 -0.0480165 2.39691 0.0555717 1.85691 0.312666C1.31691 0.56976 0.858036 0.970451 0.530522 1.47088C0.203007 1.97132 0.0194705 2.5522 0 3.14997Z" fill="url(#paint1_linear)"/>
<path d="M19.4297 39.5499V95.4299L33.6197 106C33.9207 106.241 34.2829 106.394 34.6658 106.442C35.0487 106.489 35.4373 106.429 35.788 106.268C36.1387 106.107 36.4378 105.852 36.6518 105.531C36.8657 105.21 36.9862 104.836 36.9997 104.45V74.6199L50.9997 85.0999V63.0999L19.4297 39.5499Z" fill="#160744"/>
</g>
<defs>
<linearGradient id="paint0_linear" x1="-40.37" y1="66.1299" x2="234.09" y2="27.4699" gradientUnits="userSpaceOnUse">
<stop offset="0.25" stop-color="#73A0F8"/>
<stop offset="0.6" stop-color="#FF63F8"/>
<stop offset="0.79" stop-color="#931EDF"/>
<stop offset="0.88" stop-color="#6400D4"/>
</linearGradient>
<linearGradient id="paint1_linear" x1="-15.97" y1="-5.42003" x2="95.9" y2="164.06" gradientUnits="userSpaceOnUse">
<stop offset="0.15" stop-color="#6AC7FF"/>
<stop offset="0.22" stop-color="#6CB8FC"/>
<stop offset="0.35" stop-color="#7190F5"/>
<stop offset="0.52" stop-color="#7950EA"/>
<stop offset="0.72" stop-color="#8300DC"/>
</linearGradient>
<clipPath id="clip0">
<rect width="351" height="107" fill="white"/>
</clipPath>
</defs>
</svg>
