<svg width="265" height="81" viewBox="0 0 265 81" fill="none" xmlns="http://www.w3.org/2000/svg">
<path d="M132.814 26.2098C131.381 26.1853 129.965 26.5211 128.695 27.1864C127.535 27.8285 126.568 28.7695 125.894 29.9117C125.894 29.9571 125.667 30.3205 125.486 30.6233C125.304 30.9261 125.168 30.964 124.91 30.4416C124.2 29.1353 123.178 28.0248 121.935 27.2091C120.627 26.5213 119.166 26.1774 117.688 26.2098C116.366 26.1352 115.047 26.4108 113.865 27.009C112.684 27.6071 111.681 28.5066 110.958 29.6165C110.686 30.0707 110.496 30.4492 110.496 29.9874V27.3227C110.496 27.1372 110.423 26.9593 110.293 26.8275C110.162 26.6957 109.985 26.6206 109.8 26.6186H103.259C103.167 26.6186 103.076 26.6369 102.991 26.6724C102.906 26.7078 102.829 26.7598 102.764 26.8253C102.699 26.8908 102.648 26.9684 102.613 27.0538C102.579 27.1392 102.562 27.2306 102.563 27.3227C102.563 27.8904 102.563 28.5793 102.563 29.1471C102.561 29.2189 102.584 29.289 102.628 29.3456C102.672 29.4022 102.735 29.4418 102.805 29.4575C103.236 29.5483 104.099 29.9042 104.099 31.3879V51.3661C104.099 51.5528 104.174 51.7319 104.306 51.8639C104.438 51.9959 104.617 52.0701 104.803 52.0701H109.807C109.993 52.0681 110.17 51.9931 110.3 51.8612C110.431 51.7294 110.504 51.5515 110.504 51.3661V35.6728C110.58 34.5169 111.094 33.4337 111.942 32.6446C112.779 31.9166 113.862 31.5349 114.97 31.5772C115.574 31.5586 116.173 31.6723 116.728 31.9104C117.283 32.1484 117.778 32.505 118.18 32.955C119.021 33.9449 119.459 35.2151 119.407 36.5131V51.3661C119.407 51.5515 119.48 51.7294 119.61 51.8612C119.741 51.9931 119.918 52.0681 120.103 52.0701H125.054C125.241 52.0701 125.42 51.9959 125.552 51.8639C125.684 51.7319 125.758 51.5528 125.758 51.3661V36.4828C125.699 35.1908 126.138 33.9253 126.985 32.9474C127.39 32.5063 127.886 32.1576 128.439 31.9251C128.991 31.6926 129.588 31.5817 130.187 31.5999C130.781 31.5774 131.372 31.6874 131.918 31.9218C132.464 32.1561 132.951 32.5091 133.344 32.955C134.16 33.9645 134.578 35.2387 134.517 36.5358V51.3661C134.517 51.5515 134.59 51.7294 134.721 51.8612C134.851 51.9931 135.028 52.0681 135.213 52.0701H140.217C140.404 52.0701 140.583 51.9959 140.715 51.8639C140.847 51.7319 140.921 51.5528 140.921 51.3661V34.9536C140.921 32.1828 140.164 30.0026 138.779 28.4885C138.004 27.7068 137.071 27.0993 136.042 26.7064C135.013 26.3135 133.913 26.1442 132.814 26.2098Z" fill="white"/>
<path d="M176.199 26.6189H171.203C170.814 26.6189 170.499 26.9341 170.499 27.3229V51.3588C170.499 51.7476 170.814 52.0628 171.203 52.0628H176.199C176.588 52.0628 176.903 51.7476 176.903 51.3588V27.3229C176.903 26.9341 176.588 26.6189 176.199 26.6189Z" fill="white"/>
<path d="M167.304 40.5634C167.236 39.3143 167.138 38.1485 167.017 37.0962C166.449 33.6366 165.207 30.9112 163.322 29.0035C161.437 27.0958 158.871 26.1646 155.669 26.1646C153.124 26.103 150.631 26.8827 148.575 28.3828C146.615 29.8213 145.209 31.8901 144.593 34.2422C144.198 35.8439 144.014 37.4907 144.048 39.1402C144.042 40.7067 144.243 42.2671 144.646 43.7808C145.225 46.3018 146.642 48.5518 148.666 50.1626C150.855 51.7685 153.524 52.585 156.236 52.4791C158.158 52.4961 160.061 52.0985 161.816 51.3133C163.382 50.6231 164.771 49.588 165.881 48.2852C165.942 48.2219 165.989 48.1462 166.018 48.0632C166.047 47.9802 166.058 47.892 166.05 47.8043C166.043 47.7167 166.016 47.6319 165.972 47.5555C165.929 47.4791 165.869 47.4129 165.798 47.3616L163.019 44.6968C162.969 44.6431 162.906 44.6018 162.837 44.5763C162.768 44.5508 162.694 44.5417 162.62 44.5498C162.547 44.5579 162.476 44.5829 162.414 44.6229C162.352 44.6628 162.3 44.7166 162.262 44.7801C161.591 45.5435 160.764 46.1541 159.837 46.5707C158.91 46.9873 157.904 47.2002 156.887 47.195C155.545 47.2344 154.215 46.9267 153.027 46.3017C151.973 45.7422 151.181 44.7904 150.824 43.6521C150.656 43.1846 150.541 42.6995 150.483 42.2062L150.392 41.6157C150.332 41.2448 150.392 41.2523 150.755 41.2448H166.789C166.854 41.2511 166.919 41.2439 166.98 41.2236C167.042 41.2032 167.098 41.1702 167.146 41.1267C167.194 41.0831 167.232 41.03 167.258 40.9708C167.284 40.9116 167.297 40.8476 167.297 40.783C167.297 40.783 167.304 40.6013 167.304 40.5634ZM160.385 36.9827H150.687C150.559 36.9827 150.468 36.9145 150.506 36.7177L150.559 36.4376C150.637 35.9119 150.756 35.393 150.914 34.8857C151.189 33.9175 151.771 33.0648 152.572 32.4556C153.481 31.8794 154.537 31.5803 155.613 31.5951C156.688 31.6099 157.736 31.9379 158.629 32.5389C159.452 33.1879 160.052 34.0768 160.347 35.0825C160.491 35.5464 160.569 36.0279 160.582 36.5133C160.582 36.5133 160.582 36.748 160.582 36.7783C160.612 36.9297 160.491 36.9827 160.355 36.9827H160.385Z" fill="white"/>
<path d="M246.521 40.5632C246.452 39.3141 246.354 38.1483 246.233 37.096C245.673 33.6363 244.424 30.911 242.539 29.0033C240.654 27.0956 238.095 26.1644 234.885 26.1644C232.341 26.1051 229.848 26.8845 227.792 28.3825C225.835 29.8204 224.437 31.8905 223.832 34.242C223.434 35.8433 223.248 37.4901 223.28 39.14C223.273 40.7065 223.474 42.2669 223.878 43.7806C224.459 46.3024 225.879 48.5523 227.905 50.1624C230.093 51.7709 232.762 52.5878 235.475 52.4789C237.397 52.4959 239.3 52.0982 241.055 51.3131C242.622 50.6212 244.014 49.5864 245.128 48.2849C245.188 48.2211 245.235 48.145 245.263 48.0617C245.292 47.9785 245.302 47.89 245.293 47.8024C245.285 47.7147 245.257 47.63 245.213 47.5539C245.169 47.4778 245.109 47.4121 245.037 47.3614L242.251 44.6966C242.054 44.4922 241.766 44.4543 241.494 44.7799C240.821 45.5431 239.992 46.1535 239.064 46.57C238.136 46.9866 237.129 47.1996 236.111 47.1948C234.769 47.2342 233.439 46.9265 232.25 46.3015C231.197 45.7419 230.405 44.7902 230.047 43.6519C229.88 43.1844 229.765 42.6993 229.707 42.206L229.624 41.6155C229.555 41.2445 229.661 41.2521 229.979 41.2445H246.036C246.101 41.2521 246.166 41.2458 246.228 41.2259C246.29 41.206 246.347 41.1731 246.395 41.1293C246.443 41.0855 246.481 41.0319 246.507 40.9721C246.532 40.9123 246.545 40.8477 246.543 40.7827C246.543 40.7827 246.528 40.601 246.521 40.5632ZM239.609 36.9824H229.934C229.813 36.9824 229.714 36.9143 229.752 36.7175L229.805 36.4374C229.884 35.9116 230.002 35.3928 230.161 34.8854C230.436 33.9173 231.018 33.0645 231.819 32.4554C232.727 31.8791 233.784 31.5801 234.859 31.5949C235.935 31.6097 236.983 31.9376 237.875 32.5386C238.468 33.021 238.95 33.626 239.287 34.312C239.624 34.9981 239.809 35.7489 239.828 36.5131C239.828 36.5131 239.828 36.7477 239.828 36.778C239.859 36.9294 239.775 36.9824 239.609 36.9824Z" fill="white"/>
<path d="M264.825 26.8837C264.581 26.7587 264.328 26.65 264.068 26.5582C263.449 26.3498 262.799 26.2499 262.146 26.263C260.887 26.2844 259.659 26.648 258.592 27.3149C257.525 27.9817 256.66 28.9267 256.089 30.0481C255.998 30.2223 255.877 30.1617 255.877 30.0481C255.877 29.7378 255.877 28.2464 255.915 27.3455C255.916 27.2528 255.899 27.1608 255.864 27.0749C255.829 26.989 255.777 26.911 255.711 26.8454C255.646 26.7799 255.568 26.728 255.482 26.693C255.396 26.658 255.304 26.6405 255.211 26.6415H250.184C249.998 26.6415 249.819 26.7157 249.687 26.8477C249.555 26.9797 249.48 27.1588 249.48 27.3455V51.3662C249.48 51.5529 249.555 51.732 249.687 51.864C249.819 51.9961 249.998 52.0703 250.184 52.0703H255.188C255.374 52.0683 255.551 51.9932 255.681 51.8614C255.812 51.7296 255.885 51.5516 255.885 51.3662V37.8834C255.86 37.2383 255.972 36.5952 256.214 35.9963C256.455 35.3975 256.82 34.8564 257.285 34.4087C258.532 33.3059 260.166 32.7424 261.828 32.8416H261.881C262.389 32.8738 262.895 32.9421 263.395 33.046C263.46 33.0699 263.529 33.0782 263.598 33.07C263.667 33.0619 263.732 33.0377 263.79 32.9993C263.848 32.961 263.895 32.9095 263.929 32.8492C263.963 32.7889 263.982 32.7215 263.985 32.6523C264.031 32.4252 264.962 27.3531 264.962 27.3531C265.015 27.1487 265.045 26.9897 264.825 26.8837Z" fill="white"/>
<path d="M193.967 26.5733L188.668 26.6187V20.6381C188.669 20.5921 188.661 20.5464 188.644 20.5036C188.626 20.4609 188.601 20.4221 188.568 20.3896C188.536 20.357 188.497 20.3314 188.454 20.3143C188.411 20.2971 188.366 20.2888 188.32 20.2899H185.004C184.927 20.2931 184.854 20.3215 184.795 20.3708C184.736 20.4201 184.695 20.4875 184.678 20.5624C184.493 21.9517 184.02 23.2871 183.291 24.4836C182.561 25.6802 181.59 26.7115 180.439 27.512C180.397 27.5409 180.363 27.5794 180.34 27.6242C180.316 27.6689 180.303 27.7187 180.303 27.7694V31.1609C180.303 31.2532 180.339 31.3418 180.405 31.4071C180.47 31.4724 180.559 31.5091 180.651 31.5091H182.642V46.0366C182.642 49.8899 185.761 52.3805 190.591 52.3805C191.181 52.3805 192.271 52.32 193.528 52.2518C193.801 52.2518 193.869 52.0777 193.869 51.8431V47.2403C193.869 47.1479 193.832 47.0593 193.767 46.994C193.701 46.9287 193.613 46.892 193.521 46.892H192.006C191.544 46.9302 191.08 46.8674 190.644 46.7079C190.209 46.5484 189.814 46.2961 189.486 45.9685C188.919 45.1724 188.651 44.2021 188.729 43.228V31.5167H194.028C194.122 31.5167 194.213 31.4792 194.279 31.4125C194.346 31.3458 194.384 31.2552 194.384 31.1609V26.9215C194.385 26.8694 194.374 26.8178 194.352 26.7704C194.331 26.723 194.299 26.681 194.259 26.6476C194.219 26.6142 194.172 26.5902 194.121 26.5773C194.071 26.5644 194.018 26.5631 193.967 26.5733Z" fill="white"/>
<path d="M211.584 26.2101C210.218 26.1476 208.863 26.4781 207.68 27.1624C206.496 27.8468 205.534 28.8562 204.907 30.071C204.786 30.2527 204.702 30.1694 204.702 30.071V27.323C204.702 27.1375 204.629 26.9596 204.499 26.8278C204.368 26.696 204.191 26.6209 204.006 26.6189H199.002C198.815 26.6189 198.636 26.6931 198.504 26.8251C198.372 26.9572 198.298 27.1362 198.298 27.323V51.3663C198.298 51.5531 198.372 51.7321 198.504 51.8642C198.636 51.9962 198.815 52.0704 199.002 52.0704H204.006C204.191 52.0684 204.368 51.9933 204.499 51.8615C204.629 51.7297 204.702 51.5518 204.702 51.3663V36.589C204.651 35.2729 205.109 33.9876 205.982 33.0007C206.407 32.5402 206.927 32.1768 207.506 31.9351C208.085 31.6934 208.709 31.5792 209.335 31.6002C209.958 31.5744 210.578 31.6873 211.152 31.9308C211.725 32.1744 212.237 32.5424 212.651 33.0083C213.488 34.0091 213.922 35.2855 213.87 36.589V51.3663C213.87 51.5531 213.944 51.7321 214.076 51.8642C214.208 51.9962 214.387 52.0704 214.574 52.0704H219.54C219.727 52.0704 219.906 51.9962 220.038 51.8642C220.17 51.7321 220.244 51.5531 220.244 51.3663V35.1053C220.305 33.9155 220.125 32.7256 219.715 31.607C219.306 30.4883 218.674 29.4638 217.859 28.5948C217.028 27.795 216.043 27.1715 214.965 26.7617C213.887 26.3519 212.736 26.1643 211.584 26.2101Z" fill="white"/>
<path d="M173.702 22.8259C175.709 22.8259 177.336 21.199 177.336 19.1921C177.336 17.1852 175.709 15.5583 173.702 15.5583C171.695 15.5583 170.068 17.1852 170.068 19.1921C170.068 21.199 171.695 22.8259 173.702 22.8259Z" fill="white"/>
<path d="M73.2203 0.531298L38.6088 26.4219V47.8308L62.4705 29.9723V72.2451L75.7488 62.3204C76.1971 61.9953 76.5632 61.57 76.8182 61.0785C77.0732 60.587 77.2099 60.0428 77.2175 59.4891V2.41631C77.2079 1.95722 77.0704 1.50992 76.8205 1.1247C76.5705 0.739479 76.2181 0.431628 75.8028 0.235765C75.3874 0.0399022 74.9257 -0.0362042 74.4695 0.016005C74.0133 0.0682142 73.5807 0.246668 73.2203 0.531298Z" fill="url(#paint0_linear_2301_17779)"/>
<path d="M38.6088 47.8307V64.4855L49.2072 56.5215V79.1038C49.2208 79.389 49.312 79.6651 49.471 79.9022C49.6301 80.1394 49.8509 80.3286 50.1096 80.4494C50.3683 80.5702 50.6552 80.618 50.9391 80.5876C51.223 80.5573 51.4932 80.4499 51.7206 80.2772L62.4705 72.2451V29.9723L38.6088 47.8307Z" fill="#2F0C66"/>
<path d="M0 2.41652V59.4893C0.00293163 60.0406 0.134482 60.5836 0.384185 61.0751C0.633889 61.5667 0.994854 61.9931 1.43836 62.3206L14.7092 72.2453V29.9725L38.6087 47.831V26.4221L3.95929 0.531504C3.59872 0.25766 3.16977 0.0882826 2.71939 0.0419102C2.269 -0.00446231 1.81454 0.0739575 1.40574 0.268587C0.996942 0.463216 0.649562 0.766552 0.401623 1.1454C0.153683 1.52424 0.0147398 1.96399 0 2.41652H0Z" fill="url(#paint1_linear_2301_17779)"/>
<path d="M14.709 29.9723V72.2753L25.4513 80.2772C25.6792 80.4599 25.9534 80.5757 26.2432 80.6115C26.5331 80.6473 26.8273 80.6018 27.0928 80.4801C27.3583 80.3583 27.5847 80.1651 27.7467 79.9221C27.9087 79.679 27.9999 79.3957 28.0101 79.1038V56.5215L38.6085 64.4552V47.8004L14.709 29.9723Z" fill="#160744"/>
<defs>
<linearGradient id="paint0_linear_2301_17779" x1="-30.5614" y1="50.0943" x2="177.214" y2="20.8274" gradientUnits="userSpaceOnUse">
<stop offset="0.25" stop-color="#73A0F8"/>
<stop offset="0.6" stop-color="#FF63F8"/>
<stop offset="0.79" stop-color="#931EDF"/>
<stop offset="0.88" stop-color="#6400D4"/>
</linearGradient>
<linearGradient id="paint1_linear_2301_17779" x1="-12.0898" y1="-4.07126" x2="72.5996" y2="124.231" gradientUnits="userSpaceOnUse">
<stop offset="0.15" stop-color="#6AC7FF"/>
<stop offset="0.22" stop-color="#6CB8FC"/>
<stop offset="0.35" stop-color="#7190F5"/>
<stop offset="0.52" stop-color="#7950EA"/>
<stop offset="0.72" stop-color="#8300DC"/>
</linearGradient>
</defs>
</svg>
