<svg width="265" height="81" viewBox="0 0 265 81" fill="none" xmlns="http://www.w3.org/2000/svg">
<g clip-path="url(#clip0_2301_17811)">
<path d="M132.81 26.3101C131.378 26.2854 129.961 26.6229 128.692 27.2916C127.532 27.9369 126.565 28.8827 125.891 30.0307C125.891 30.0763 125.664 30.4415 125.483 30.7459C125.301 31.0502 125.165 31.0882 124.907 30.5633C124.197 29.2503 123.175 28.1343 121.932 27.3144C120.624 26.6231 119.163 26.2775 117.685 26.3101C116.363 26.2351 115.044 26.5121 113.863 27.1133C112.681 27.7145 111.678 28.6185 110.955 29.7339C110.683 30.1904 110.494 30.5709 110.494 30.1068V27.4286C110.494 27.2422 110.421 27.0634 110.29 26.9309C110.16 26.7984 109.983 26.723 109.797 26.721H103.257C103.165 26.721 103.073 26.7393 102.988 26.775C102.903 26.8106 102.826 26.8629 102.761 26.9287C102.697 26.9945 102.646 27.0725 102.611 27.1584C102.576 27.2442 102.559 27.336 102.56 27.4286C102.56 27.9992 102.56 28.6916 102.56 29.2622C102.558 29.3343 102.582 29.4049 102.626 29.4617C102.67 29.5186 102.732 29.5583 102.802 29.5742C103.234 29.6655 104.097 30.0231 104.097 31.5143V51.5931C104.097 51.7808 104.171 51.9608 104.303 52.0935C104.435 52.2262 104.614 52.3007 104.801 52.3007H109.805C109.99 52.2987 110.167 52.2233 110.298 52.0908C110.428 51.9583 110.501 51.7795 110.501 51.5931V35.8207C110.577 34.659 111.092 33.5704 111.94 32.7773C112.776 32.0457 113.859 31.662 114.968 31.7045C115.571 31.6859 116.171 31.8002 116.725 32.0394C117.28 32.2786 117.775 32.637 118.177 33.0893C119.019 34.0841 119.456 35.3608 119.404 36.6653V51.5931C119.404 51.7795 119.477 51.9583 119.607 52.0908C119.738 52.2233 119.915 52.2987 120.1 52.3007H125.051C125.238 52.3007 125.417 52.2262 125.549 52.0935C125.681 51.9608 125.755 51.7808 125.755 51.5931V36.6348C125.696 35.3363 126.135 34.0645 126.981 33.0817C127.387 32.6383 127.883 32.2879 128.436 32.0542C128.988 31.8205 129.584 31.7091 130.184 31.7274C130.777 31.7048 131.369 31.8153 131.915 32.0508C132.461 32.2864 132.948 32.6411 133.34 33.0893C134.157 34.1039 134.574 35.3845 134.514 36.6881V51.5931C134.514 51.7795 134.587 51.9583 134.717 52.0908C134.848 52.2233 135.025 52.2987 135.21 52.3007H140.214C140.401 52.3007 140.58 52.2262 140.712 52.0935C140.844 51.9608 140.918 51.7808 140.918 51.5931V35.0979C140.918 32.3132 140.161 30.122 138.776 28.6003C138 27.8146 137.067 27.2041 136.039 26.8092C135.01 26.4143 133.91 26.2442 132.81 26.3101Z" fill="#160744"/>
<path d="M176.195 26.7209H171.199C170.81 26.7209 170.495 27.0377 170.495 27.4285V51.5855C170.495 51.9763 170.81 52.2931 171.199 52.2931H176.195C176.584 52.2931 176.899 51.9763 176.899 51.5855V27.4285C176.899 27.0377 176.584 26.7209 176.195 26.7209Z" fill="#160744"/>
<path d="M167.3 40.7359C167.232 39.4805 167.133 38.3088 167.012 37.2512C166.445 33.7741 165.203 31.035 163.318 29.1177C161.433 27.2004 158.867 26.2645 155.665 26.2645C153.121 26.2026 150.627 26.9862 148.571 28.4938C146.611 29.9396 145.205 32.0188 144.59 34.3828C144.194 35.9925 144.011 37.6476 144.044 39.3055C144.038 40.8798 144.239 42.4481 144.643 43.9695C145.221 46.5032 146.639 48.7645 148.662 50.3834C150.851 51.9974 153.52 52.8181 156.232 52.7116C158.154 52.7287 160.057 52.329 161.812 51.5399C163.378 50.8463 164.767 49.8059 165.877 48.4965C165.938 48.4329 165.985 48.3568 166.014 48.2734C166.043 48.1901 166.054 48.1013 166.046 48.0133C166.038 47.9252 166.012 47.8399 165.968 47.7631C165.924 47.6864 165.865 47.6199 165.793 47.5683L163.015 44.8901C162.965 44.8361 162.902 44.7946 162.833 44.769C162.764 44.7434 162.689 44.7342 162.616 44.7424C162.543 44.7505 162.472 44.7756 162.41 44.8158C162.348 44.8559 162.296 44.91 162.258 44.9738C161.587 45.7411 160.76 46.3547 159.833 46.7734C158.906 47.1921 157.9 47.4061 156.883 47.4009C155.541 47.4404 154.211 47.1312 153.023 46.5031C151.969 45.9407 151.178 44.9841 150.82 43.8401C150.652 43.3702 150.538 42.8827 150.479 42.3869L150.388 41.7934C150.328 41.4206 150.388 41.4282 150.752 41.4206H166.785C166.85 41.427 166.914 41.4198 166.976 41.3993C167.037 41.3789 167.094 41.3457 167.141 41.3019C167.189 41.2582 167.227 41.2048 167.253 41.1453C167.279 41.0858 167.293 41.0215 167.292 40.9565C167.292 40.9565 167.3 40.7739 167.3 40.7359ZM160.381 37.137H150.684C150.555 37.137 150.464 37.0686 150.502 36.8707L150.555 36.5892C150.633 36.0609 150.752 35.5394 150.911 35.0295C151.186 34.0565 151.767 33.1994 152.568 32.5872C153.477 32.008 154.533 31.7075 155.609 31.7224C156.684 31.7372 157.732 32.0668 158.625 32.6709C159.447 33.3231 160.048 34.2166 160.343 35.2273C160.486 35.6936 160.565 36.1774 160.578 36.6653C160.578 36.6653 160.578 36.9012 160.578 36.9316C160.608 37.0838 160.487 37.137 160.351 37.137H160.381Z" fill="#160744"/>
<path d="M246.514 40.7359C246.446 39.4805 246.347 38.3088 246.226 37.2512C245.666 33.7741 244.417 31.035 242.532 29.1177C240.647 27.2004 238.088 26.2645 234.878 26.2645C232.335 26.2049 229.842 26.9883 227.785 28.4938C225.829 29.939 224.43 32.0195 223.826 34.3828C223.428 35.9922 223.242 37.6473 223.273 39.3055C223.267 40.8799 223.468 42.4481 223.872 43.9695C224.453 46.504 225.873 48.7653 227.899 50.3834C230.086 52.0001 232.756 52.8211 235.469 52.7116C237.391 52.7287 239.294 52.329 241.048 51.5399C242.615 50.8445 244.007 49.8045 245.121 48.4965C245.182 48.4324 245.228 48.3559 245.256 48.2722C245.285 48.1885 245.295 48.0996 245.287 48.0115C245.278 47.9235 245.251 47.8383 245.206 47.7618C245.162 47.6853 245.102 47.6193 245.03 47.5683L242.244 44.8901C242.047 44.6847 241.76 44.6466 241.487 44.9738C240.814 45.7409 239.986 46.3543 239.057 46.773C238.129 47.1916 237.122 47.4057 236.105 47.4009C234.763 47.4405 233.433 47.1312 232.244 46.5031C231.19 45.9407 230.399 44.9841 230.041 43.8401C229.873 43.3702 229.759 42.8827 229.701 42.3869L229.617 41.7935C229.549 41.4206 229.655 41.4282 229.973 41.4206H246.029C246.094 41.4283 246.159 41.4219 246.221 41.4019C246.283 41.3819 246.34 41.3488 246.388 41.3048C246.436 41.2608 246.474 41.207 246.5 41.1469C246.526 41.0868 246.538 41.0219 246.537 40.9565C246.537 40.9565 246.521 40.7739 246.514 40.7359ZM239.602 37.1371H229.928C229.807 37.1371 229.708 37.0686 229.746 36.8708L229.799 36.5892C229.877 36.0609 229.996 35.5394 230.155 35.0295C230.43 34.0565 231.011 33.1994 231.813 32.5872C232.721 32.008 233.777 31.7075 234.853 31.7224C235.929 31.7372 236.977 32.0668 237.869 32.6709C238.462 33.1557 238.943 33.7637 239.28 34.4532C239.617 35.1427 239.802 35.8973 239.822 36.6653C239.822 36.6653 239.822 36.9012 239.822 36.9316C239.852 37.0838 239.769 37.1371 239.602 37.1371Z" fill="#160744"/>
<path d="M264.818 26.9872C264.573 26.8616 264.321 26.7523 264.061 26.6601C263.442 26.4506 262.792 26.3502 262.138 26.3633C260.88 26.3848 259.652 26.7503 258.585 27.4205C257.518 28.0908 256.653 29.0404 256.082 30.1676C255.992 30.3426 255.87 30.2817 255.87 30.1676C255.87 29.8556 255.87 28.3568 255.908 27.4513C255.909 27.3581 255.892 27.2657 255.857 27.1794C255.822 27.093 255.77 27.0146 255.704 26.9487C255.639 26.8828 255.561 26.8307 255.475 26.7955C255.389 26.7603 255.297 26.7427 255.204 26.7438H250.178C249.991 26.7438 249.812 26.8183 249.68 26.951C249.548 27.0837 249.474 27.2637 249.474 27.4513V51.5931C249.474 51.7807 249.548 51.9607 249.68 52.0934C249.812 52.2261 249.991 52.3007 250.178 52.3007H255.182C255.367 52.2987 255.544 52.2232 255.674 52.0907C255.805 51.9583 255.878 51.7794 255.878 51.5931V38.0424C255.853 37.3939 255.965 36.7476 256.207 36.1457C256.448 35.5438 256.813 35.0001 257.278 34.5501C258.525 33.4417 260.159 32.8754 261.821 32.9751H261.874C262.382 33.0074 262.888 33.0761 263.388 33.1805C263.452 33.2046 263.522 33.2129 263.591 33.2047C263.66 33.1965 263.725 33.1722 263.783 33.1336C263.84 33.0951 263.888 33.0434 263.922 32.9828C263.956 32.9222 263.975 32.8544 263.978 32.7849C264.023 32.5566 264.955 27.4589 264.955 27.4589C265.008 27.2535 265.038 27.0937 264.818 26.9872Z" fill="#160744"/>
<path d="M193.962 26.6754L188.663 26.721V20.7103C188.664 20.6641 188.656 20.6181 188.638 20.5752C188.621 20.5322 188.596 20.4932 188.563 20.4605C188.531 20.4278 188.492 20.4021 188.449 20.3848C188.406 20.3676 188.361 20.3593 188.315 20.3603H184.999C184.922 20.3635 184.849 20.3921 184.79 20.4416C184.731 20.4912 184.69 20.5589 184.673 20.6342C184.488 22.0305 184.015 23.3727 183.286 24.5752C182.556 25.7778 181.585 26.8143 180.434 27.6188C180.393 27.6479 180.358 27.6866 180.335 27.7316C180.311 27.7766 180.298 27.8266 180.298 27.8775V31.2861C180.298 31.3789 180.335 31.468 180.4 31.5336C180.465 31.5992 180.554 31.6361 180.646 31.6361H182.637V46.2368C182.637 50.1095 185.756 52.6127 190.586 52.6127C191.176 52.6127 192.266 52.5518 193.523 52.4834C193.795 52.4834 193.864 52.3084 193.864 52.0725V47.4465C193.864 47.3537 193.827 47.2647 193.762 47.1991C193.696 47.1334 193.608 47.0966 193.515 47.0966H192.001C191.539 47.1349 191.074 47.0718 190.639 46.9115C190.204 46.7512 189.808 46.4976 189.48 46.1683C188.914 45.3682 188.646 44.393 188.723 43.414V31.6437H194.022C194.117 31.6437 194.207 31.606 194.274 31.539C194.341 31.4719 194.378 31.3809 194.378 31.2861V27.0254C194.379 26.973 194.369 26.9211 194.347 26.8735C194.325 26.8259 194.293 26.7837 194.254 26.7501C194.214 26.7165 194.167 26.6924 194.116 26.6794C194.066 26.6665 194.013 26.6651 193.962 26.6754Z" fill="#160744"/>
<path d="M211.578 26.3101C210.212 26.2473 208.857 26.5795 207.674 27.2672C206.49 27.955 205.528 28.9695 204.901 30.1905C204.78 30.3731 204.696 30.2894 204.696 30.1905V27.4286C204.696 27.2422 204.623 27.0634 204.493 26.9309C204.362 26.7984 204.185 26.723 204 26.721H198.996C198.809 26.721 198.63 26.7955 198.498 26.9282C198.366 27.0609 198.292 27.2409 198.292 27.4286V51.5931C198.292 51.7808 198.366 51.9608 198.498 52.0935C198.63 52.2262 198.809 52.3007 198.996 52.3007H204C204.185 52.2987 204.362 52.2233 204.493 52.0908C204.623 51.9583 204.696 51.7795 204.696 51.5931V36.7414C204.645 35.4185 205.103 34.1268 205.976 33.1349C206.401 32.6721 206.921 32.3069 207.5 32.064C208.079 31.8211 208.702 31.7063 209.329 31.7274C209.952 31.7014 210.572 31.8149 211.146 32.0597C211.719 32.3044 212.231 32.6743 212.645 33.1426C213.482 34.1485 213.916 35.4313 213.864 36.7414V51.5931C213.864 51.7808 213.938 51.9608 214.07 52.0935C214.202 52.2262 214.381 52.3007 214.568 52.3007H219.534C219.72 52.3007 219.9 52.2262 220.032 52.0935C220.164 51.9608 220.238 51.7808 220.238 51.5931V35.2501C220.299 34.0543 220.119 32.8585 219.709 31.7342C219.299 30.6099 218.668 29.5802 217.853 28.7068C217.022 27.903 216.037 27.2763 214.959 26.8645C213.88 26.4526 212.73 26.2641 211.578 26.3101Z" fill="#160744"/>
<path d="M173.697 22.9091C175.703 22.9091 177.33 21.274 177.33 19.2571C177.33 17.2401 175.703 15.605 173.697 15.605C171.69 15.605 170.063 17.2401 170.063 19.2571C170.063 21.274 171.69 22.9091 173.697 22.9091Z" fill="#160744"/>
<path d="M73.2183 0.502115L38.6077 26.5232V48.04L62.4687 30.0915V72.5774L75.7467 62.6026C76.1949 62.2759 76.5611 61.8485 76.816 61.3545C77.071 60.8605 77.2077 60.3135 77.2153 59.757V2.39663C77.2057 1.93523 77.0682 1.48566 76.8183 1.09851C76.5684 0.711346 76.216 0.401943 75.8007 0.205093C75.3853 0.00824294 74.9236 -0.068247 74.4674 -0.0157747C74.0112 0.0366976 73.5786 0.216051 73.2183 0.502115Z" fill="url(#paint0_linear_2301_17811)"/>
<path d="M38.6077 48.04V64.7787L49.2058 56.7745V79.4707C49.2194 79.7573 49.3106 80.0348 49.4696 80.2732C49.6287 80.5115 49.8495 80.7016 50.1082 80.823C50.3669 80.9444 50.6537 80.9925 50.9376 80.962C51.2216 80.9315 51.4918 80.8236 51.7191 80.65L62.4687 72.5774V30.0916L38.6077 48.04Z" fill="#2F0C66"/>
<path d="M0 2.39657V59.757C0.00293155 60.3111 0.134478 60.8568 0.384175 61.3508C0.633871 61.8448 0.994827 62.2734 1.43832 62.6026L14.7088 72.5773V30.0915L38.6077 48.0399V26.5231L3.95918 0.502055C3.59862 0.22683 3.16969 0.0565993 2.71931 0.00999316C2.26894 -0.036613 1.81449 0.042202 1.4057 0.237812C0.996915 0.433422 0.649545 0.738288 0.401612 1.11904C0.153679 1.4998 0.0147394 1.94176 0 2.39657H0Z" fill="url(#paint1_linear_2301_17811)"/>
<path d="M14.7087 30.0916V72.6078L25.4508 80.65C25.6786 80.8336 25.9528 80.95 26.2427 80.986C26.5326 81.022 26.8267 80.9763 27.0922 80.8539C27.3577 80.7315 27.5841 80.5373 27.7461 80.2931C27.9081 80.0488 27.9993 79.764 28.0095 79.4707V56.7745L38.6076 64.7482V48.0095L14.7087 30.0916Z" fill="#160744"/>
</g>
<defs>
<linearGradient id="paint0_linear_2301_17811" x1="-30.5606" y1="50.3149" x2="177.25" y2="21.1906" gradientUnits="userSpaceOnUse">
<stop offset="0.25" stop-color="#73A0F8"/>
<stop offset="0.6" stop-color="#FF63F8"/>
<stop offset="0.79" stop-color="#931EDF"/>
<stop offset="0.88" stop-color="#6400D4"/>
</linearGradient>
<linearGradient id="paint1_linear_2301_17811" x1="-12.0895" y1="-4.12391" x2="73.1951" y2="124.428" gradientUnits="userSpaceOnUse">
<stop offset="0.15" stop-color="#6AC7FF"/>
<stop offset="0.22" stop-color="#6CB8FC"/>
<stop offset="0.35" stop-color="#7190F5"/>
<stop offset="0.52" stop-color="#7950EA"/>
<stop offset="0.72" stop-color="#8300DC"/>
</linearGradient>
<clipPath id="clip0_2301_17811">
<rect width="265" height="81" fill="white"/>
</clipPath>
</defs>
</svg>
